<svg width="640" height="931" viewBox="0 0 640 931" fill="none" xmlns="http://www.w3.org/2000/svg">
<mask id="mask0_278_3" style="mask-type:alpha" maskUnits="userSpaceOnUse" x="0" y="0" width="658" height="931">
<rect width="658" height="931" fill="#D9D9D9"/>
</mask>
<g mask="url(#mask0_278_3)">
<path d="M423.824 102.946C428.554 106.934 431.893 112.322 433.362 118.33C418.833 131.638 405.26 145.954 392.745 161.172V161.172C380.163 176.393 368.671 192.486 358.358 209.328C352.18 209.034 346.254 206.784 341.436 202.904C327.423 191.354 327.1 167.431 339 144.246L338.649 143.957C326.58 134.009 322.763 118.672 330.125 109.739C337.488 100.807 353.272 101.626 365.341 111.573L365.692 111.862C386.245 95.6738 409.785 91.374 423.824 102.946Z" stroke="#2843CE" stroke-width="2" stroke-miterlimit="10"/>
<path d="M643.358 7.08041C638.751 11.3499 633.824 16.1719 628.47 21.4574C628.47 21.4574 708.325 19.5232 511.117 258.784C313.91 498.045 300.584 419.263 300.584 419.263C297.156 424.413 294.038 429.186 291.165 433.661C292.272 438.057 294.828 441.952 298.421 444.717C331.113 467.766 449.84 362.229 526.345 271.335C599.482 184.418 687.835 46.9126 656.609 13.8331C653.011 10.2462 648.374 7.88351 643.358 7.08041Z" stroke="#2843CE" stroke-width="2" stroke-miterlimit="10"/>
<path d="M928.81 -305.467C855.849 -301.115 812.255 -218.353 807.931 -209.862C790.225 -175.012 797.448 -158.635 775.738 -114.033C760.851 -83.7728 741.258 -56.0663 717.691 -31.9449C715.232 -28.0544 711.929 -24.7674 708.027 -22.3277C704.124 -19.8879 699.722 -18.3579 695.147 -17.8509C676.459 -19.6581 662.74 -10.9347 643.18 7.29552C648.196 8.09863 652.832 10.4614 656.431 14.0483C687.657 47.1278 599.37 184.552 526.167 271.55C449.595 362.525 330.935 467.981 298.242 444.933C294.649 442.167 292.093 438.272 290.987 433.876C275.581 458.069 268.83 473.85 274.409 492.497C281.091 514.592 294.463 534.95 290.157 544.906C285.85 554.862 223.982 613.859 224.106 632.633C224.246 655.953 239.75 677.796 244.388 683.612C253.297 694.807 263.546 702.122 277.522 712.01C287.53 719.129 297.999 725.578 308.859 731.313C308.859 731.313 267.252 759.787 195.302 740.139C123.352 720.49 33.0005 733 34.5005 755.5C36.0005 778 37.5005 808 37.5005 823C37.5005 838 40.3404 868.22 42.5004 870C44.6603 871.781 45.0678 873.83 56.5005 861.5C67.9332 849.17 74.3781 846.138 82.5005 842.5C90.6229 838.862 106.277 833.13 161.295 856.543C216.313 879.956 301.962 917.422 366.003 918.995C430.044 920.569 525.229 918.354 610.55 819.681C651.437 822.238 692.47 818.362 732.149 808.194C741.022 805.9 749.68 803.427 757.923 800.523C864.783 764.56 929.38 689.049 970.308 641.208C1014.81 589.148 1080.56 512.283 1101.14 396.771C1102.82 387.465 1104.18 377.843 1105.24 367.975C1112.27 297.493 1102.03 226.351 1075.4 160.697C1075.4 160.697 1074.77 158.77 1073.38 155.176C1078.37 142.843 1159.02 -61.1126 1097.98 -176.683C1087.42 -195.945 1074.76 -213.979 1060.23 -230.456C1035.03 -258.026 988.576 -309.049 928.81 -305.467ZM1054.62 -146.748C1076.48 -98.0078 1070.29 -48.0885 1069.5 -42.1726C1069.32 -40.9132 1068.92 -37.8925 1067.58 -30.6571C1060.39 6.78099 1050.36 43.6148 1037.57 79.5239C1005.42 21.8447 965.579 -31.1967 919.135 -78.1407C916.297 -81.0237 913.361 -83.8972 910.424 -86.7708C900.358 -96.563 890.168 -105.324 890.168 -105.324C878.533 -115.326 866.387 -124.717 853.779 -133.46C855.148 -159.757 864.508 -185.007 880.608 -205.838C889.369 -217.017 907.117 -239.596 933.423 -244.336C984.419 -253.56 1035.26 -190.037 1054.62 -146.748Z" stroke="#2843CE" stroke-width="2" stroke-miterlimit="10"/>
<path d="M511.117 258.783C313.932 498.017 300.584 419.262 300.584 419.262C322.485 386.419 314.362 324.705 314.362 324.705C314.362 324.705 318.506 274.734 358.359 209.329C368.666 192.496 380.15 176.413 392.724 161.199V161.199C405.239 145.982 418.811 131.666 433.34 118.358C490.022 66.6422 538.283 53.0338 538.283 53.0338C538.283 53.0338 600.386 49.2026 628.448 21.4831C628.47 21.4561 708.325 19.522 511.117 258.783Z" stroke="#2843CE" stroke-width="2" stroke-miterlimit="10"/>
<path d="M244.755 683.552C244.755 683.552 406.885 619.591 627.07 352.453C847.254 85.315 910.451 -86.748 910.451 -86.748" stroke="#2843CE" stroke-width="2" stroke-miterlimit="10"/>
<path d="M253.096 692.466C253.096 692.466 415.293 628.424 635.655 361.07C856.018 93.7162 919.304 -78.4547 919.304 -78.4547" stroke="#2843CE" stroke-width="2" stroke-miterlimit="10"/>
<path d="M309.226 731.253C397.665 792.093 503.246 823.039 610.513 819.56" stroke="#2843CE" stroke-width="2" stroke-miterlimit="10"/>
</g>
</svg>
